<?xml version="1.0" encoding="UTF-8"?>
<svg version="1.1" xmlns="http://www.w3.org/2000/svg" width="127" height="148">
<path d="M0 0 C1.12591553 0.00523682 2.25183105 0.01047363 3.41186523 0.01586914 C4.62680664 0.0190918 5.84174805 0.02231445 7.09350586 0.02563477 C8.37290039 0.03401367 9.65229492 0.04239258 10.97045898 0.05102539 C12.2537207 0.05553711 13.53698242 0.06004883 14.85913086 0.06469727 C18.04211921 0.07652994 21.22501661 0.09301471 24.40795898 0.11352539 C25.40795898 3.11352539 25.40795898 3.11352539 24.38867188 5.45239258 C23.61124634 6.79285645 23.61124634 6.79285645 22.81811523 8.16040039 C22.25882324 9.14202148 21.69953125 10.12364258 21.12329102 11.13500977 C20.55723145 12.11791992 19.99117188 13.10083008 19.40795898 14.11352539 C18.48438603 15.8031825 17.56616535 17.49577932 16.65405273 19.19165039 C12.05218736 27.67310431 7.42613764 36.13997949 2.68432617 44.54418945 C1.62298732 46.42746251 0.56896401 48.31487665 -0.4777832 50.20629883 C-3.12890982 54.95523163 -5.86433263 59.58725533 -8.8888092 64.11013794 C-16.88884886 74.94441808 -16.88884886 74.94441808 -20.66967773 87.3293457 C-19.65621652 91.5847989 -16.93266243 94.71136109 -14.19946289 97.98510742 C-10.90719347 102.34446417 -8.60607593 107.3423397 -6.09204102 112.17602539 C-3.13030329 117.69913843 -0.16703355 123.21439077 3.05639648 128.59008789 C3.43860352 129.23067139 3.82081055 129.87125488 4.21459961 130.53125 C5.20054255 132.16449963 6.20574756 133.78607988 7.21264648 135.40649414 C8.61366812 138.57939609 8.21650729 139.83433648 7.40795898 143.11352539 C3.13725341 143.20044613 -1.13322559 143.25389054 -5.40454102 143.30102539 C-6.61948242 143.32616211 -7.83442383 143.35129883 -9.08618164 143.37719727 C-10.83125 143.39169922 -10.83125 143.39169922 -12.61157227 143.40649414 C-14.22189331 143.43005981 -14.22189331 143.43005981 -15.86474609 143.45410156 C-18.59204102 143.11352539 -18.59204102 143.11352539 -20.29833984 141.89111328 C-21.82376342 139.79513119 -23.05874172 137.67195389 -24.27172852 135.37915039 C-24.7823584 134.42314941 -25.29298828 133.46714844 -25.8190918 132.48217773 C-26.36291504 131.45302246 -26.90673828 130.42386719 -27.46704102 129.36352539 C-32.63200056 119.69706308 -37.93004263 110.11998034 -43.36499023 100.6027832 C-44.3591971 98.8578231 -45.348402 97.10999831 -46.33129883 95.35864258 C-47.38051398 93.49021064 -48.44875812 91.63248003 -49.52172852 89.77758789 C-50.80531968 86.58266391 -50.48119004 85.38972339 -49.59204102 82.11352539 C-48.56738281 79.85961914 -48.56738281 79.85961914 -47.29125977 77.55102539 C-46.81527344 76.6833252 -46.33928711 75.815625 -45.84887695 74.92163086 C-45.33099609 73.99495605 -44.81311523 73.06828125 -44.27954102 72.11352539 C-43.73974609 71.13657715 -43.19995117 70.15962891 -42.64379883 69.15307617 C-37.6179444 60.08697212 -32.47800034 51.08665505 -27.30786133 42.10229492 C-25.36195622 38.71274309 -23.42543334 35.31792941 -21.49047852 31.92211914 C-20.77532788 30.66771398 -20.06015858 29.41331947 -19.3449707 28.15893555 C-18.2948933 26.3171445 -17.24504864 24.47522377 -16.19616699 22.63275146 C-3.39352394 0.14862849 -3.39352394 0.14862849 0 0 Z " fill="#233DF9" transform="translate(99.592041015625,2.886474609375)"/>
<path d="M0 0 C1.09828125 -0.03738281 2.1965625 -0.07476563 3.328125 -0.11328125 C11.34510024 -0.2008453 11.34510024 -0.2008453 15.0859375 2.1796875 C18.32489229 6.96211533 21.2866687 11.84512529 24.125 16.875 C24.73085938 17.90753906 25.33671875 18.94007812 25.9609375 20.00390625 C26.528125 21.00292969 27.0953125 22.00195312 27.6796875 23.03125 C28.45675049 24.38959961 28.45675049 24.38959961 29.24951172 25.77539062 C30.45714494 28.91323313 30.30959826 30.21128518 29.25 33.375 C28.3564174 35.2414194 27.38923243 37.07349927 26.37109375 38.875 C25.78312012 39.92155762 25.19514648 40.96811523 24.58935547 42.04638672 C23.96174316 43.1448291 23.33413086 44.24327148 22.6875 45.375 C22.05215332 46.49535645 21.41680664 47.61571289 20.76220703 48.77001953 C18.93573217 51.97811246 17.09682757 55.17858784 15.25 58.375 C14.7947998 59.16358398 14.33959961 59.95216797 13.87060547 60.76464844 C7.48959862 71.73126572 7.48959862 71.73126572 3.25 74.375 C0.82397461 74.74731445 0.82397461 74.74731445 -1.84765625 74.73828125 C-2.81380859 74.73763672 -3.77996094 74.73699219 -4.77539062 74.73632812 C-5.77763672 74.72021484 -6.77988281 74.70410156 -7.8125 74.6875 C-9.32166992 74.69233398 -9.32166992 74.69233398 -10.86132812 74.69726562 C-18.34913247 74.64224502 -18.34913247 74.64224502 -21.75 72.375 C-21.2092902 67.84692134 -20.05471796 64.62403817 -17.80078125 60.671875 C-17.19943359 59.60839844 -16.59808594 58.54492188 -15.97851562 57.44921875 C-15.03008789 55.80373047 -15.03008789 55.80373047 -14.0625 54.125 C-13.44955078 53.04347656 -12.83660156 51.96195313 -12.20507812 50.84765625 C-7.33829376 42.29078618 -7.33829376 42.29078618 -4.91943359 38.52539062 C-4.3620752 37.65591797 -3.8047168 36.78644531 -3.23046875 35.890625 C-2.72797607 35.13555664 -2.2254834 34.38048828 -1.70776367 33.60253906 C-0.46881146 30.72101982 -0.80157583 29.33233246 -1.75 26.375 C-2.72174576 24.26989782 -2.72174576 24.26989782 -3.96484375 22.2734375 C-4.62323242 21.16742188 -4.62323242 21.16742188 -5.29492188 20.0390625 C-5.98424805 18.90597656 -5.98424805 18.90597656 -6.6875 17.75 C-7.14318359 16.986875 -7.59886719 16.22375 -8.06835938 15.4375 C-9.90557197 12.37099581 -11.76658608 9.35012088 -13.75 6.375 C-12.75671457 -1.96859765 -7.19419491 0.09159276 0 0 Z " fill="#1BC7DA" transform="translate(23.75,29.625)"/>
<path d="M0 0 C1.12591553 0.00523682 2.25183105 0.01047363 3.41186523 0.01586914 C4.62680664 0.0190918 5.84174805 0.02231445 7.09350586 0.02563477 C8.37290039 0.03401367 9.65229492 0.04239258 10.97045898 0.05102539 C12.2537207 0.05553711 13.53698242 0.06004883 14.85913086 0.06469727 C18.04211921 0.07652994 21.22501661 0.09301471 24.40795898 0.11352539 C24.40795898 0.44352539 24.40795898 0.77352539 24.40795898 1.11352539 C11.04295898 1.60852539 11.04295898 1.60852539 -2.59204102 2.11352539 C-4.43428781 7.69507552 -4.43428781 7.69507552 -3.59204102 13.11352539 C-4.58204102 13.77352539 -5.57204102 14.43352539 -6.59204102 15.11352539 C-6.92204102 16.10352539 -7.25204102 17.09352539 -7.59204102 18.11352539 C-8.58204102 18.44352539 -9.57204102 18.77352539 -10.59204102 19.11352539 C-11.25204102 20.10352539 -11.91204102 21.09352539 -12.59204102 22.11352539 C-13.25204102 22.11352539 -13.91204102 22.11352539 -14.59204102 22.11352539 C-13.12710607 16.96624032 -10.81519142 12.81175472 -8.02954102 8.30102539 C-7.61768555 7.62104492 -7.20583008 6.94106445 -6.78149414 6.24047852 C-3.06165228 0.13409328 -3.06165228 0.13409328 0 0 Z " fill="#2840F0" transform="translate(99.592041015625,2.886474609375)"/>
<path d="M0 0 C0.91644287 0.00523682 1.83288574 0.01047363 2.77709961 0.01586914 C3.76645508 0.0190918 4.75581055 0.02231445 5.77514648 0.02563477 C6.81606445 0.03401367 7.85698242 0.04239258 8.92944336 0.05102539 C10.49662109 0.05779297 10.49662109 0.05779297 12.09545898 0.06469727 C14.68600996 0.07652627 17.27644895 0.0930085 19.86694336 0.11352539 C15.08924799 2.72096045 10.55010926 2.5422048 5.17944336 2.76977539 C2.15623956 3.08350409 0.41321801 3.53483511 -2.13305664 5.11352539 C-1.61743164 5.69102539 -1.10180664 6.26852539 -0.57055664 6.86352539 C0.86694336 9.11352539 0.86694336 9.11352539 0.55444336 11.36352539 C0.32756836 11.94102539 0.10069336 12.51852539 -0.13305664 13.11352539 C-4.18153061 6.8567929 -4.18153061 6.8567929 -3.94555664 3.23852539 C-2.76353363 0.14708059 -2.76353363 0.14708059 0 0 Z " fill="#49ADE1" transform="translate(14.133056640625,29.886474609375)"/>
<path d="M0 0 C0.33 0.66 0.66 1.32 1 2 C0.30306589 3.69255426 -0.40188872 5.38267903 -1.1640625 7.046875 C-2.41192045 9.96243096 -3.18742413 12.93721402 -4 16 C-4.66 16 -5.32 16 -6 16 C-6.2475 16.78375 -6.495 17.5675 -6.75 18.375 C-8.15389099 21.32317108 -9.00675737 21.9024777 -12 23 C-10.46688715 17.48431813 -7.81247556 12.97965148 -4.875 8.125 C-4.40707031 7.34125 -3.93914063 6.5575 -3.45703125 5.75 C-2.30981892 3.83017528 -1.1573993 1.91369439 0 0 Z " fill="#2C44E6" transform="translate(63,62)"/>
<path d="M0 0 C0.33 1.32 0.66 2.64 1 4 C0.34 4 -0.32 4 -1 4 C-0.79375 4.598125 -0.5875 5.19625 -0.375 5.8125 C0 8 0 8 -2 11 C-1.34 11.33 -0.68 11.66 0 12 C-0.66 12 -1.32 12 -2 12 C-2 12.66 -2 13.32 -2 14 C-2.78375 14.20625 -3.5675 14.4125 -4.375 14.625 C-7.31138444 15.78871514 -7.31138444 15.78871514 -8.125 19.0625 C-8.41375 20.031875 -8.7025 21.00125 -9 22 C-9.99 22.33 -10.98 22.66 -12 23 C-10.46688715 17.48431813 -7.81247556 12.97965148 -4.875 8.125 C-4.40707031 7.34125 -3.93914063 6.5575 -3.45703125 5.75 C-2.30981892 3.83017528 -1.1573993 1.91369439 0 0 Z " fill="#30C4D5" transform="translate(22,63)"/>
<path d="M0 0 C1.26972656 0.02707031 2.53945312 0.05414063 3.84765625 0.08203125 C6.98347906 0.1527641 10.11588663 0.25143508 13.25 0.375 C13.25 0.705 13.25 1.035 13.25 1.375 C-0.115 1.87 -0.115 1.87 -13.75 2.375 C-14.08 3.695 -14.41 5.015 -14.75 6.375 C-16.3125 8.125 -16.3125 8.125 -17.75 9.375 C-17.75 6.24114618 -17.31712847 4.22014152 -15.50195312 1.63183594 C-11.27414089 -1.4011598 -4.95177148 -0.19847799 0 0 Z " fill="#3647B6" transform="translate(110.75,2.625)"/>
<path d="M0 0 C0.33 0.66 0.66 1.32 1 2 C-0.07983398 4.33837891 -0.07983398 4.33837891 -1.74609375 7.2265625 C-2.33583984 8.2578125 -2.92558594 9.2890625 -3.53320312 10.3515625 C-4.16162109 11.43179688 -4.79003906 12.51203125 -5.4375 13.625 C-6.06205078 14.71296875 -6.68660156 15.8009375 -7.33007812 16.921875 C-8.87961699 19.61878233 -10.4365104 22.31116406 -12 25 C-13.04449911 21.86650268 -12.93423645 21.01031744 -12 18 C-11.34 18 -10.68 18 -10 18 C-9.67 15.36 -9.34 12.72 -9 10 C-7.68 10 -6.36 10 -5 10 C-4.731875 9.0925 -4.46375 8.185 -4.1875 7.25 C-3.10423706 4.28528037 -2.01640543 2.3830246 0 0 Z " fill="#3DB5C6" transform="translate(47,70)"/>
<path d="M0 0 C1.11665191 3.71425351 0.79401325 5.50639525 -1 9 C-1.99 9.495 -1.99 9.495 -3 10 C-2.67 11.98 -2.34 13.96 -2 16 C-2.66 16 -3.32 16 -4 16 C-4 15.34 -4 14.68 -4 14 C-4.66 14 -5.32 14 -6 14 C-6 14.66 -6 15.32 -6 16 C-6.66 16 -7.32 16 -8 16 C-6.42986223 10.03347646 -3.24970218 5.17090975 0 0 Z " fill="#2D44E0" transform="translate(80,32)"/>
<path d="M0 0 C0.33 0.66 0.66 1.32 1 2 C-0.109375 4.390625 -0.109375 4.390625 -1.75 7.25 C-2.58144531 8.72146484 -2.58144531 8.72146484 -3.4296875 10.22265625 C-4.20699219 11.59744141 -4.20699219 11.59744141 -5 13 C-6.03284111 14.98652286 -7.02048805 16.98655877 -8 19 C-8.33 19 -8.66 19 -9 19 C-9 17.02 -9 15.04 -9 13 C-7.68 12.34 -6.36 11.68 -5 11 C-5.020625 10.236875 -5.04125 9.47375 -5.0625 8.6875 C-5 6 -5 6 -4 3 C-3.34 3 -2.68 3 -2 3 C-1.34 2.01 -0.68 1.02 0 0 Z " fill="#3144D7" transform="translate(124,4)"/>
<path d="M0 0 C0.33 0 0.66 0 1 0 C1.66 3.3 2.32 6.6 3 10 C3.99 10 4.98 10 6 10 C6.66 13.3 7.32 16.6 8 20 C5.66288284 16.88384379 3.67295261 13.92766706 1.75 10.5625 C1.20859375 9.63566406 0.6671875 8.70882812 0.109375 7.75390625 C-1.14953423 4.62879706 -0.98878778 3.16757016 0 0 Z " fill="#3145D2" transform="translate(50,85)"/>
<path d="M0 0 C0.66 0 1.32 0 2 0 C2 0.66 2 1.32 2 2 C3.65 2 5.3 2 7 2 C8 5 8 5 7.5 6.9375 C6.92297519 9.31772734 7.25977147 10.69706679 8 13 C5.27324841 10.59310197 3.88033404 8.07528977 2.3125 4.8125 C1.65701172 3.46091797 1.65701172 3.46091797 0.98828125 2.08203125 C0.66214844 1.39496094 0.33601562 0.70789062 0 0 Z " fill="#33C1D4" transform="translate(15,43)"/>
<path d="M0 0 C8 9.42857143 8 9.42857143 8 14 C4.93756393 12.97918798 3.85342775 12.55949546 2 10 C1.8125 6.8125 1.8125 6.8125 2 4 C1.34 4 0.68 4 0 4 C0 2.68 0 1.36 0 0 Z " fill="#3BB5C3" transform="translate(38,32)"/>
<path d="M0 0 C0.99 0.495 0.99 0.495 2 1 C2 1.66 2 2.32 2 3 C2.66 3 3.32 3 4 3 C4.33 4.32 4.66 5.64 5 7 C5.66 7 6.32 7 7 7 C7.33 9.64 7.66 12.28 8 15 C5.84821844 12.23612808 4.01629579 9.43466931 2.3125 6.375 C1.87550781 5.59898438 1.43851563 4.82296875 0.98828125 4.0234375 C0 2 0 2 0 0 Z " fill="#3246D3" transform="translate(62,112)"/>
<path d="M0 0 C7 8.20689655 7 8.20689655 7 13 C6.34 13 5.68 13 5 13 C3 10 3 10 3 6 C2.34 6 1.68 6 1 6 C0.67 4.02 0.34 2.04 0 0 Z " fill="#3044D7" transform="translate(82,96)"/>
<path d="M0 0 C2.0625 0.4375 2.0625 0.4375 4 1 C3.19185349 2.33597652 2.37836819 3.668725 1.5625 5 C1.11003906 5.7425 0.65757813 6.485 0.19140625 7.25 C-0.20175781 7.8275 -0.59492187 8.405 -1 9 C-1.33 9 -1.66 9 -2 9 C-1.125 1.125 -1.125 1.125 0 0 Z " fill="#2D46DF" transform="translate(81,77)"/>
<path d="M0 0 C0.33 0.66 0.66 1.32 1 2 C-0.38542316 5.62848922 -1.84351662 8.76527494 -4 12 C-4.66 12 -5.32 12 -6 12 C-4.43358249 7.69235185 -2.31663844 3.93828536 0 0 Z " fill="#2F4AD4" transform="translate(63,62)"/>
<path d="M0 0 C0.66 0 1.32 0 2 0 C0.52307692 4.67692308 0.52307692 4.67692308 -2.125 6.3125 C-3.053125 6.6528125 -3.053125 6.6528125 -4 7 C-4 5.35 -4 3.7 -4 2 C-3.34 1.67 -2.68 1.34 -2 1 C-1.34 1.33 -0.68 1.66 0 2 C0 1.34 0 0.68 0 0 Z " fill="#31BFCD" transform="translate(31,96)"/>
<path d="M0 0 C0.33 0.66 0.66 1.32 1 2 C-0.4375 4.625 -0.4375 4.625 -2 7 C-5 3.25 -5 3.25 -5 1 C-3.35 0.67 -1.7 0.34 0 0 Z " fill="#2A40E3" transform="translate(104,40)"/>
<path d="M0 0 C0.12375 0.639375 0.2475 1.27875 0.375 1.9375 C0.684375 2.9584375 0.684375 2.9584375 1 4 C1.66 4.33 2.32 4.66 3 5 C2.01 5.33 1.02 5.66 0 6 C-0.99 7.485 -0.99 7.485 -2 9 C-2.66 9 -3.32 9 -4 9 C-2.94124926 5.59687262 -1.99097846 2.98646769 0 0 Z " fill="#2F42E1" transform="translate(89,16)"/>
<path d="M0 0 C1.98 0.495 1.98 0.495 4 1 C3.34 3.31 2.68 5.62 2 8 C0.4375 6.25 0.4375 6.25 -1 4 C-0.6875 1.75 -0.6875 1.75 0 0 Z " fill="#2C41EB" transform="translate(60,104)"/>
<path d="M0 0 C3.1875 -0.3125 3.1875 -0.3125 6 0 C6 0.33 6 0.66 6 1 C4.35 1 2.7 1 1 1 C0.896875 1.598125 0.79375 2.19625 0.6875 2.8125 C-0.08876455 5.28243264 -1.07088921 6.32251235 -3 8 C-3 4.3139451 -2.31141604 2.85074644 0 0 Z " fill="#3145D0" transform="translate(96,4)"/>
<path d="M0 0 C4.42857143 5.14285714 4.42857143 5.14285714 5 9 C4.34 9 3.68 9 3 9 C3 8.34 3 7.68 3 7 C2.34 7 1.68 7 1 7 C0.67 4.69 0.34 2.38 0 0 Z " fill="#2C3ED7" transform="translate(98,125)"/>
<path d="M0 0 C0.33 0.66 0.66 1.32 1 2 C-0.32 3.65 -1.64 5.3 -3 7 C-3.33 5.02 -3.66 3.04 -4 1 C-2.68 0.67 -1.36 0.34 0 0 Z " fill="#2DBDD1" transform="translate(51,63)"/>
<path d="M0 0 C1.0625 1.875 1.0625 1.875 2 4 C1.67 4.66 1.34 5.32 1 6 C-1.0625 6.625 -1.0625 6.625 -3 7 C-1.125 1.125 -1.125 1.125 0 0 Z " fill="#3148DF" transform="translate(67,55)"/>
</svg>
